Patient4_TMGait_0pt4_02_left_27_EMG.mot
version=1
nRows=33
nColumns=33
inDegrees=no
endheader
time	1LAddLong	2LGlutMax	3LGlutMed	4LIliopsoas	5LSemiMemb	6LBicFemLong	7LRecFem	8LVastMed	9LVastLat	10LGasMed	11LTibAnt	12lTibPost	13LPeroneusLong	14LSol	15LExtDigLong	16LFlexDigLong	17RAddLong	18RGlutMax	19RGlutMed	20RIliopsoas	21RSemiMemb	22RBicFemLong	23RRecFem	24RVastMed	25RVastLat	26RGasMed	27RTibAnt	28RTibPost	29RPeroneusLong	30RSol	31RExtDigLong	32RFlexDigLong
36.22	-0.007477	0.82916	0.000763	-0.029297	0.012207	-0.019226	0.3006	0.012054	-0.11383	-0.040588	-0.008545	-0.008087	0.027924	-0.023041	-0.2034	0.014191	0.002136	0.15656	0.22537	-0.084229	-0.031281	0.011597	-0.55695	-0.15854	0.045471	-0.007935	0.030823	-0.004578	0.13351	-0.021667	0.014038	-0.002747
36.221	0.012512	0.80963	0.027161	-0.00946	0.011902	-0.005341	0.26489	0.010223	-0.1181	-0.046539	0.11093	-0.009613	0.040131	0.009003	-0.30045	0.008087	0.010834	0.15427	-0.053101	-0.015259	-0.021057	-0.20248	-0.26733	0.078583	-0.083618	-0.0177	0.52383	-0.003967	-0.29755	0.11993	0.010223	-0.013733
36.222	-0.005341	0.76202	0.022125	0.039215	0.021515	-0.01236	0.19547	0.014954	-0.11917	-0.013275	0.063782	-0.024719	0.030365	0.024872	-0.1387	0.007629	0.015564	0.20477	-0.46982	0.067596	-0.02594	-0.24994	0.094299	0.2681	-0.34561	0.001526	0.20645	-0.002899	1.0175	0.061188	0.010376	0.000458
36.223	0.002136	0.72952	0.044403	0.056458	0.020752	0.016174	0.19302	0.015106	-0.13947	0.005493	0.065613	0.003357	-0.030518	0.000305	-0.20874	0.004425	0.011749	0.14313	-0.50858	0.121	-0.016785	-0.20737	0.14648	0.10925	-0.47897	0.008087	-0.016785	-0.004578	2.5081	0.041656	0.009613	-0.008392
36.224	0.003052	0.70526	0.081482	0.01236	0.010071	0.029602	0.27237	0.014801	-0.15839	0.016174	0.011902	-0.006256	-0.02594	-0.092926	-0.23193	0.002136	0.014038	0.15259	0.40146	0.013275	-0.002899	-0.18173	0.07309	-0.020905	-0.25436	-0.033264	0.17868	-0.003815	-0.17044	0.050201	0.012817	0.000916
36.225	-0.001526	0.63171	0.038147	-0.012512	0.005798	0.022736	0.29892	0.016937	-0.1648	0.029602	0.087128	0.000305	-0.018158	-0.159	-0.13779	0.005646	0.019226	0.097961	-0.075378	-0.11261	0.011139	-0.091553	-0.12238	-0.000916	-0.11307	0.016174	0.17807	-0.004578	-1.4494	0.027924	0.01236	-0.001678
36.226	0.000763	0.62118	0.002747	-0.013885	0.004883	0.01709	0.31281	0.013123	-0.16449	0.019531	0.11688	-0.000458	0.023346	-0.10223	0.036774	0.007629	0.01358	-0.002289	-0.090942	-0.087128	0.011902	-0.082855	-0.2034	0.12619	0.039825	0.003204	0.17731	-0.003204	-0.47821	0.1152	0.01236	-0.00824
36.227	-0.016632	0.63019	-0.039368	0	0.009308	0.030975	0.29831	0.014801	-0.15198	-0.016327	-0.13962	0	0.077209	0.031281	0.092316	0.006256	0.011749	0.039978	0.003662	-0.046234	0.00473	0.020447	-0.11261	-0.03479	0.065155	0.011902	-0.27893	-0.004883	0.70923	0.007324	0.016632	0.002136
36.228	-0.01236	0.59006	-0.023804	-0.000458	0.004425	0.015106	0.27832	0.013428	-0.16449	0.007477	-0.11078	-0.004425	0.041046	-0.02121	0.16998	0.005646	0.011597	0.005341	-0.076904	0.00061	0.026703	0.34119	-0.009766	-0.021667	0.010376	-0.023804	-0.37735	-0.00412	-0.16525	0.005798	0.014648	0.002289
36.229	0.001221	0.56992	-0.009155	0.00412	0.014801	-0.003052	0.28091	0.011749	-0.16388	0.021515	-0.11169	-0.000153	-0.000305	-0.05661	0.19638	-0.003662	0.012817	-0.050964	0.15091	-0.008392	0.013275	0.68268	0.11795	-0.00061	-0.019531	-0.045319	0.010529	-0.011902	-1.5707	0.26855	0.009308	0.001068
36.23	0.001373	0.51025	-0.005341	0.00061	0.012817	-0.024872	0.25177	0.007782	-0.16052	-0.007935	-0.039368	-0.005951	-0.043793	0.001984	0.30945	-0.000916	0.02182	-0.027313	0.51025	-0.033417	0.007324	0.46661	0.30899	-0.007477	-0.096436	-0.066528	0.008698	-0.016785	-0.17654	0.22385	0.003204	-0.002441
36.231	0.005646	0.48569	0.009155	-0.007324	0.014343	-0.027008	0.2298	0.01236	-0.16922	-0.019684	0.039063	0.004883	0.005951	-0.022583	0.063019	-0.001373	0.01297	-0.12314	0.38116	-0.061646	0.001831	0.26566	0.38284	0.10712	-0.11826	-0.096436	-0.02655	-0.017548	0.90988	0.092621	0.010223	-0.002136
36.232	0.02243	0.46158	-0.012512	0.003357	0.01709	-0.030212	0.22308	0.008087	-0.16052	-0.031433	0.17105	0.005341	0.008545	-0.055542	0.098267	0.001373	-0.019379	-0.023956	-0.36987	-0.055695	0.022888	0.26764	0.3067	0.046082	-0.077362	-0.086212	-0.032654	-0.019989	0.003662	0.088806	0.011597	-0.003052
36.233	0.11948	0.4689	-0.029297	-0.014038	0.00885	-0.034943	0.21622	0.009766	-0.15945	-0.035095	0.14786	-0.00885	0.060272	-0.053406	0.095673	0.000153	-0.037994	0.07019	-0.64087	-0.061493	0.044403	0.23727	-0.11612	-0.14603	-0.16098	-0.08194	0.093689	-0.033569	-0.61264	0.018311	0.005035	-0.004272
36.234	0.097198	0.42618	-0.006714	-0.005035	0.014954	-0.046844	0.20172	0.011749	-0.16235	-0.037994	-0.015106	0.002136	0.07782	-0.038452	-0.11032	-0.002594	-0.058746	0.042725	-0.68497	-0.037994	0.031586	0.16724	-0.66895	0.036621	0.027161	-0.085754	0.12329	-0.003204	0.095825	0.028381	0.006561	-0.001068
36.235	-0.008545	0.41275	-0.009155	-0.00412	0.012512	-0.041351	0.19714	0.006866	-0.16342	-0.019226	-0.091858	0.001221	-0.010834	-0.049438	0.093994	0.001526	-0.046844	0.04776	-0.40329	-0.052948	0.014191	0.031281	-0.80582	0.40863	0.34454	0.079346	0.0737	0.084991	0.54047	-0.015717	0.00885	-0.007935
36.236	0.002136	0.4277	-0.012512	0.00885	0.015869	-0.014343	0.20401	0.011139	-0.17792	0.003967	-0.20645	0.005798	0.007935	-0.043182	0.46326	-0.003815	-0.005646	-0.010071	-0.49652	-0.081329	-0.027313	-0.050354	-0.47073	0.35797	0.31036	0.011597	0.23819	-0.027771	0.53131	-0.036621	0.010986	0.000153
36.237	0.007629	0.41367	-0.021667	0.015564	0.022583	-0.032349	0.21271	0.004272	-0.18921	-0.002747	-0.11734	-0.002899	0.024109	-0.043335	0.25299	-0.004883	0.024109	-0.1329	-0.80292	-0.011444	-0.057678	-0.088806	-0.18829	0.13245	0.12817	0.010986	0.4892	-0.071106	-0.51788	0.16266	0.005188	0.002899
36.238	0.004425	0.44479	-0.026703	0.005341	0.030518	-0.013428	0.24231	0.005798	-0.20294	-0.009003	0.035095	0.003967	-0.000305	-0.02121	-0.4895	0.001678	0.036469	-0.22858	-0.59341	0.064697	-0.068207	-0.071411	-0.045624	0.001373	-0.055542	0.043335	0.16724	0.058746	-0.28137	0.1329	0.007477	-0.002136
36.239	0.002747	0.43259	-0.010681	-0.003662	0.023041	0.011749	0.20905	0.006409	-0.21347	-0.007629	0.058441	0.00412	0.016632	0.006256	-0.26611	0.00412	0.03067	-0.26688	-0.18082	0.10193	-0.059509	-0.029449	-0.011902	-0.033722	-0.047302	0.027313	0.06958	0.016632	-1.2729	0.016327	0.013123	-0.001526
36.24	-0.000153	0.43625	-0.011139	0.002747	0.036011	0.030365	0.20554	0.007172	-0.21774	0.008087	0.002289	0.009155	0.025177	0.033722	-0.37079	-0.018921	0.024109	-0.2829	-0.32303	0.18677	-0.046082	-0.014343	0.029907	0.026703	0.048676	0.003662	-0.10208	0.005035	-0.66086	-0.17197	0.009766	-0.007324
36.241	0.003204	0.42129	0.006714	0.022583	0.021973	0.063782	0.17212	0.011139	-0.21988	0.007477	0.011292	0.004883	0.019531	-0.019836	-0.19684	-0.00351	0.023956	-0.1947	0.10132	0.11627	-0.03418	0.10071	0.08667	-0.00412	0.009003	0.000916	-0.4071	0.013275	2.0367	-0.19379	0.004883	-0.00885
36.242	0.003815	0.36575	-0.004883	0.005798	0.024414	0.076141	0.1471	0.011902	-0.22034	0.022888	0.080566	0.009613	0.040894	-0.12665	-0.12436	0.002899	0.027466	-0.21835	0.28763	0.10986	-0.018005	0.16617	0.15167	-0.062714	-0.010529	0.058746	-0.25238	-0.00351	1.104	-0.11841	0.004883	-0.005951
36.243	0.001221	0.31433	0.004578	0.007019	0.036926	0.080872	0.10407	0.01236	-0.22507	-0.037689	0.081482	0.004425	0.085754	-0.18265	-0.23743	-0.010834	0.008698	-0.083618	0.60776	-0.016632	-0.018616	0.14755	0.22705	-0.037231	-0.048676	0.072327	-0.10254	-0.004578	-0.84961	-0.043945	0.001373	-0.011444
36.244	-0.002136	0.28976	0.014801	0.022125	0.044708	0.092468	0.05249	0.00946	-0.21133	-0.038147	0.12375	0.00412	0.10696	-0.16419	-0.14069	-0.010681	0.001678	-0.10346	0.29923	0.021362	-0.016479	0.14679	0.15259	-0.011902	-0.021057	0.064697	-0.028992	-0.00885	-0.059357	-0.13443	0.004425	-0.007324
36.245	-0.003052	0.26321	0.02594	0.026245	0.038147	0.055695	0.011597	0.00885	-0.20508	-0.006866	0.056915	0.005798	0.022888	-0.084229	0.016785	-0.00351	0.000916	-0.18082	0.30395	0.005646	-0.011444	0.14008	0.17639	-0.001526	-0.013275	0.05127	0.12207	-0.019073	-0.35187	-0.22446	0.002136	-0.003204
36.246	0.003967	0.22064	0.018921	0.029755	0.00351	0.031433	0.01297	0.007172	-0.20142	0.006104	0.063782	0.000153	-0.077209	-0.067139	0.054932	-0.010223	-0.016785	-0.16983	0.82214	-0.10803	-0.012054	0.13809	0.038757	-0.088348	-0.026245	0.02594	0.042877	-0.017548	-0.39352	-0.14084	0.003357	-0.00885
36.247	0.007477	0.16144	-0.001221	0.019989	0.001221	0.007172	-0.014801	0.007935	-0.19394	-0.014343	0.019531	0.009918	-0.068817	-0.03479	0.075378	-0.011902	-0.00824	-0.074768	1.0031	-0.080414	-0.002747	0.065918	-0.14267	-0.12421	0.052643	0.03006	0.04715	-0.010986	-0.61111	-0.21103	0.00351	-0.002136
36.248	0.001678	0.12131	0.001373	-0.003204	0.032196	0.008087	0.025177	0.005035	-0.19531	-0.027771	0.0383	-0.002289	0.013428	-0.086975	0.30579	-0.003357	0.00946	-0.12482	1.0045	0.012665	-0.008392	-0.021515	0.010071	-0.002899	0.1442	0.02655	0.11765	-0.009003	0.088501	-0.19257	0.002136	0.001373
36.249	0.001831	0.095825	-0.012054	-0.007782	0.038757	0.012512	0.019073	0.004425	-0.20233	-0.018463	0.024719	0.006561	0.031128	-0.12573	0.099487	-0.007935	0.011749	-0.1358	0.51926	-0.046234	-0.032349	-0.13779	0.020294	-0.039673	0.056458	0.011597	0.081482	-0.012817	0.55191	0.011902	-0.001526	-0.001373
36.25	0.00473	0.044403	0.007935	0.003204	0.012512	0.026703	0.018005	0.005951	-0.19318	-0.001831	0.11353	0.003052	0.064697	-0.072784	0.075989	-0.009918	0.020142	-0.16144	-0.38361	0.036163	-0.051727	-0.21729	0.11093	-0.088654	-0.000153	0.009003	-0.38818	-0.003662	0.51468	-0.046234	0.002747	0.006256
36.251	-0.002594	0.016479	-0.018158	0.009766	0.008087	0.022888	0.016174	0.002899	-0.19714	-0.005188	0.10284	0.004425	0.02243	-0.042419	0.06012	-0.007172	0.02121	-0.15305	-0.68298	0.10284	-0.050354	-0.11093	0.11398	-0.032959	-0.07431	-0.010529	-0.49377	-0.006714	0.63965	0.044861	0.006104	-0.00946
36.252	0.011902	-0.003204	-0.017242	-0.002289	0.002594	0.02655	-0.012665	0.00473	-0.2095	0.007172	0.094452	-0.002747	0.001678	-0.089111	0.021515	-0.011902	0.00885	-0.20813	-0.039978	0.22812	-0.063477	0.10895	-0.23377	-0.005646	-0.096283	-0.010986	-0.085602	-0.005493	-0.40848	-0.001221	0.001984	-0.011902
